<?xml version="1.0" encoding="UTF-8" standalone="no"?>
<svg
   xmlns:dc="http://purl.org/dc/elements/1.1/"
   xmlns:cc="http://creativecommons.org/ns#"
   xmlns:rdf="http://www.w3.org/1999/02/22-rdf-syntax-ns#"
   xmlns:svg="http://www.w3.org/2000/svg"
   xmlns="http://www.w3.org/2000/svg"
   xmlns:sodipodi="http://sodipodi.sourceforge.net/DTD/sodipodi-0.dtd"
   xmlns:inkscape="http://www.inkscape.org/namespaces/inkscape"
   fill="#000000"
   height="48"
   viewBox="0 0 24 24"
   width="48"
   id="svg2"
   version="1.1"
   inkscape:version="0.91 r13725"
   sodipodi:docname="rect_blue_48px.svg">
  <metadata
     id="metadata12">
    <rdf:RDF>
      <cc:Work
         rdf:about="">
        <dc:format>image/svg+xml</dc:format>
        <dc:type
           rdf:resource="http://purl.org/dc/dcmitype/StillImage" />
      </cc:Work>
    </rdf:RDF>
  </metadata>
  <defs
     id="defs10" />
  <sodipodi:namedview
     pagecolor="#ffffff"
     bordercolor="#666666"
     borderopacity="1"
     objecttolerance="10"
     gridtolerance="10"
     guidetolerance="10"
     inkscape:pageopacity="0"
     inkscape:pageshadow="2"
     inkscape:window-width="1920"
     inkscape:window-height="1017"
     id="namedview8"
     showgrid="false"
     inkscape:zoom="0.86915209"
     inkscape:cx="4.9830508"
     inkscape:cy="15.661017"
     inkscape:window-x="-8"
     inkscape:window-y="-8"
     inkscape:window-maximized="1"
     inkscape:current-layer="svg2" />
  <path
     d="M0 0h24v24H0z"
     fill="none"
     id="path4" />
  <path
     d="m 19,0.76271186 -14,0 c -1.1,0 -2,1.12881364 -2,2.50847454 L 3,20.830508 c 0,1.379662 0.9,2.508475 2,2.508475 l 14,0 c 1.1,0 2,-1.128813 2,-2.508475 L 21,3.2711864 C 21,1.8915255 20.1,0.76271186 19,0.76271186 Z m 0,20.06779614 -14,0 0,-17.5593216 14,0 0,17.5593216 z"
     id="path6"
     inkscape:connector-curvature="0" />
  <path
     style="fill:#0000ff"
     d="m 10.047458,24.09661 0,-17.516949 13.957627,0 13.957627,0 0,17.516949 0,17.516949 -13.957627,0 -13.957627,0 0,-17.516949 z"
     id="path3342"
     inkscape:connector-curvature="0"
     transform="scale(0.5,0.5)" />
</svg>
