<?xml version="1.0" encoding="UTF-8" standalone="no"?>
<svg
   xmlns:dc="http://purl.org/dc/elements/1.1/"
   xmlns:cc="http://creativecommons.org/ns#"
   xmlns:rdf="http://www.w3.org/1999/02/22-rdf-syntax-ns#"
   xmlns:svg="http://www.w3.org/2000/svg"
   xmlns="http://www.w3.org/2000/svg"
   xmlns:sodipodi="http://sodipodi.sourceforge.net/DTD/sodipodi-0.dtd"
   xmlns:inkscape="http://www.inkscape.org/namespaces/inkscape"
   fill="#000000"
   height="48"
   viewBox="0 0 24 24"
   width="48"
   id="svg2"
   version="1.1"
   inkscape:version="0.91 r13725"
   sodipodi:docname="rect_red_48px.svg">
  <metadata
     id="metadata12">
    <rdf:RDF>
      <cc:Work
         rdf:about="">
        <dc:format>image/svg+xml</dc:format>
        <dc:type
           rdf:resource="http://purl.org/dc/dcmitype/StillImage" />
      </cc:Work>
    </rdf:RDF>
  </metadata>
  <defs
     id="defs10" />
  <sodipodi:namedview
     pagecolor="#ffffff"
     bordercolor="#666666"
     borderopacity="1"
     objecttolerance="10"
     gridtolerance="10"
     guidetolerance="10"
     inkscape:pageopacity="0"
     inkscape:pageshadow="2"
     inkscape:window-width="1920"
     inkscape:window-height="1017"
     id="namedview8"
     showgrid="false"
     inkscape:zoom="4.9166667"
     inkscape:cx="4.9830508"
     inkscape:cy="23.79661"
     inkscape:window-x="-8"
     inkscape:window-y="-8"
     inkscape:window-maximized="1"
     inkscape:current-layer="svg2" />
  <path
     d="M0 0h24v24H0z"
     fill="none"
     id="path4" />
  <path
     d="m 19,0.66101695 -14,0 c -1.1,0 -2,1.15423725 -2,2.56497185 L 3,21.180791 c 0,1.410735 0.9,2.564972 2,2.564972 l 14,0 c 1.1,0 2,-1.154237 2,-2.564972 L 21,3.2259888 C 21,1.8152542 20.1,0.66101695 19,0.66101695 Z m 0,20.51977405 -14,0 0,-17.9548022 14,0 0,17.9548022 z"
     id="path6"
     inkscape:connector-curvature="0" />
  <path
     style="fill:#ff0000"
     d="m 10.002311,24.397545 0,-17.9413369 13.986332,0 13.986332,0 0,17.9413369 0,17.941336 -13.986332,0 -13.986332,0 0,-17.941336 z"
     id="path3342"
     inkscape:connector-curvature="0"
     transform="scale(0.5,0.5)" />
</svg>
